<?xml version="1.0"?>
<svg xmlns="http://www.w3.org/2000/svg" id="outline" viewBox="0 0 512 512" width="512" height="512"><path d="M495.15527,268.42236,479.501,237.114l-6.99219-25.172,19.92871-13.28577a7.99858,7.99858,0,0,0,3.32324-8.59668l-24-96A7.9992,7.9992,0,0,0,464,88H434.66626L372.7998,41.6001A8.00055,8.00055,0,0,0,368,40H344a7.99928,7.99928,0,0,0-7.15527,11.57764l1.22216,2.44458-69.645,34.82251-48,24A7.99967,7.99967,0,0,0,216,120v26.10718l-43.7002,22.80005a8.0007,8.0007,0,0,0-3.16015,2.977L99.47021,288H24a8.00008,8.00008,0,0,0-8,8V400a8.00008,8.00008,0,0,0,8,8H64.022A39.97806,39.97806,0,0,0,96,472H288a40,40,0,0,0,0-80H224v-8h24a7.99943,7.99943,0,0,0,6.65625-3.5625l16-24A7.99983,7.99983,0,0,0,272,352V240a8.00008,8.00008,0,0,0-8-8H248V211.84521l110.28076-88.22436,80.05835,116.44861-28.99536,43.493A7.99983,7.99983,0,0,0,408,288v20l-28.7998,21.6001A7.99927,7.99927,0,0,0,376,336v16a8.00008,8.00008,0,0,0,8,8h67.41211A44.63816,44.63816,0,0,0,496,315.4126V272A7.99583,7.99583,0,0,0,495.15527,268.42236ZM468.002,195.71716l-8.43408-30.36279,12.72876-3.18225,6.57446,26.29858Zm.41407-49.0675-13.13184,3.283L442.5249,104h15.229ZM365.333,56l59.6875,44.76562L461.47461,232H452.208L368,109.51465V80a7.97886,7.97886,0,0,0-.85815-3.57092l.01342-.00672L356.94434,56ZM349.32812,76.54456l-64.21264,33.50232-3.33154-9.99451,63.43847-31.71924ZM232,124.94434l35.32715-17.66358,3.4209,10.26221L232,137.75928ZM142.30273,304,208,333.19922V360H32V304Zm21.395-8-7.489-3.32849L188.11719,248H200v48ZM312,432a24.0275,24.0275,0,0,1-24,24H96a24,24,0,0,1,0-48H288A24.0275,24.0275,0,0,1,312,432ZM32,392V376H208v16Zm211.71875-24H224V328a8.00079,8.00079,0,0,0-4.751-7.31055L199.69775,312H256v37.57764ZM256,296H216V248h40Zm96-187.84521L235.002,201.75293A8.00055,8.00055,0,0,0,232,208v24H184a7.99923,7.99923,0,0,0-6.50977,3.3501L139.8833,288H118.12988L181.7002,182.0498,352,93.19727ZM480,315.4126A28.61984,28.61984,0,0,1,451.41211,344H392v-4l28.7998-21.6001A7.99927,7.99927,0,0,0,424,312V290.42236L452.28125,248h14.77466L480,273.88867Z"/><rect x="120" y="424" width="144" height="16"/><circle cx="96" cy="432" r="8"/><circle cx="288" cy="432" r="8"/></svg>
