<svg id="filled_outline" height="512" viewBox="0 0 512 512" width="512" xmlns="http://www.w3.org/2000/svg" data-name="filled outline"><path d="m144 24h264v96h-264z" fill="#ffc431"/><path d="m408 120 32-24v-48l-32-24z" fill="#ffb401"/><path d="m232 488h-48v-152l-8-16v-24h64v24l-8 16z" fill="#4976f2"/><path d="m272 152h144v80h-144z" fill="#e8f2ff"/><path d="m272 232h144v72h-144z" fill="#ffc431"/><path d="m272 304a44.84449 44.84449 0 0 0 19.96924 37.31274l28.03076 18.68726-15.29932 76.49683a36.07842 36.07842 0 0 0 16.81568 38.01294l22.48364 13.49023 22.48364-13.49023a36.07842 36.07842 0 0 0 16.81568-38.01294l-15.29932-76.49683 28.03076-18.68726a44.84449 44.84449 0 0 0 19.96924-37.31274z" fill="#b1712c"/><path d="m144 120-32-24v-48l32-24z" fill="#ffb401"/><path d="m448 96v-48a8.00229 8.00229 0 0 0 -3.2002-6.40039l-32-24-.00537.00732a7.9549 7.9549 0 0 0 -4.79443-1.60693h-264a7.9538 7.9538 0 0 0 -4.79443 1.60693l-.00537-.00732-32 24a8.00229 8.00229 0 0 0 -3.2002 6.40039v16h-8a32.03667 32.03667 0 0 0 -32 32v72.76953a32.13082 32.13082 0 0 0 18.375 28.9541l108.4375 51.0293a16.06667 16.06667 0 0 1 9.1875 14.47754v24.76953h-24a8.00039 8.00039 0 0 0 -8 8v24a7.99934 7.99934 0 0 0 .84473 3.57812l7.15527 14.31055v150.11133a8.00039 8.00039 0 0 0 8 8h48a8.00039 8.00039 0 0 0 8-8v-150.11133l7.15527-14.31055a7.99934 7.99934 0 0 0 .84473-3.57812v-24a8.00039 8.00039 0 0 0 -8-8h-24v-24.76953a32.13082 32.13082 0 0 0 -18.375-28.9541l-108.4375-51.0293a16.06667 16.06667 0 0 1 -9.1875-14.47754v-72.76953a16.01833 16.01833 0 0 1 16-16h8v16a8.00229 8.00229 0 0 0 3.2002 6.40039l32 24 .00537-.00732a7.9538 7.9538 0 0 0 4.79443 1.60693h264a7.9549 7.9549 0 0 0 4.79443-1.60693l.00537.00732 32-24a8.00229 8.00229 0 0 0 3.2002-6.40039zm-216 222.11133-7.15527 14.31055a7.99934 7.99934 0 0 0 -.84473 3.57812v144h-32v-144a7.99934 7.99934 0 0 0 -.84473-3.57812l-7.15527-14.31055v-14.11133h48zm-112-266.11133 16-12v64l-16-12zm280 60h-248v-80h248zm32-20-16 12v-64l16 12z"/><path d="m424 304v-152a8.00039 8.00039 0 0 0 -8-8h-144a8.00039 8.00039 0 0 0 -8 8v152a52.7358 52.7358 0 0 0 23.53125 43.96875l23.57324 15.71582-14.249 71.24316a44.08354 44.08354 0 0 0 20.54492 46.44239l22.4834 13.49023a8.00333 8.00333 0 0 0 8.23242 0l22.4834-13.49023a44.08354 44.08354 0 0 0 20.54492-46.44239l-14.249-71.24316 23.57324-15.71582a52.7358 52.7358 0 0 0 23.53121-43.96875zm-144-64h128v16h-96v16h96v24h-128zm128-16h-24v-64h24zm-128-64h24v48h16v-48h16v48h16v-48h16v64h-88zm111.59375 174.65625-28.03125 18.6875a7.9998 7.9998 0 0 0 -3.40723 8.22559l15.29981 76.49707a28.07943 28.07943 0 0 1 -13.08789 29.583l-18.36719 11.02149-18.36719-11.02149a28.07943 28.07943 0 0 1 -13.08789-29.583l15.29981-76.49707a7.9998 7.9998 0 0 0 -3.40723-8.22559l-28.03125-18.6875a36.74706 36.74706 0 0 1 -15.51514-22.65625h126.21778a36.74706 36.74706 0 0 1 -15.51514 22.65625z"/><circle cx="344" cy="440" r="8"/></svg>